<?xml version="1.0" encoding="UTF-8"?>
<svg id="Layer_1" data-name="Layer 1" xmlns="http://www.w3.org/2000/svg" xmlns:xlink="http://www.w3.org/1999/xlink" viewBox="0 0 1285.58 2000">
  <defs>
    <style>
      .cls-1 {
        fill: #f47c31;
      }

      .cls-1, .cls-2, .cls-3, .cls-4, .cls-5, .cls-6, .cls-7, .cls-8, .cls-9, .cls-10, .cls-11, .cls-12, .cls-13, .cls-14, .cls-15, .cls-16, .cls-17, .cls-18, .cls-19, .cls-20, .cls-21, .cls-22, .cls-23, .cls-24, .cls-25, .cls-26, .cls-27, .cls-28, .cls-29, .cls-30, .cls-31, .cls-32, .cls-33, .cls-34, .cls-35, .cls-36, .cls-37, .cls-38, .cls-39, .cls-40, .cls-41, .cls-42, .cls-43, .cls-44, .cls-45, .cls-46, .cls-47, .cls-48, .cls-49, .cls-50, .cls-51, .cls-52, .cls-53, .cls-54, .cls-55, .cls-56, .cls-57, .cls-58, .cls-59, .cls-60, .cls-61, .cls-62, .cls-63, .cls-64, .cls-65, .cls-66, .cls-67, .cls-68, .cls-69, .cls-70, .cls-71, .cls-72, .cls-73, .cls-74, .cls-75, .cls-76, .cls-77, .cls-78, .cls-79, .cls-80, .cls-81, .cls-82, .cls-83, .cls-84, .cls-85, .cls-86, .cls-87, .cls-88, .cls-89, .cls-90, .cls-91, .cls-92, .cls-93, .cls-94, .cls-95, .cls-96, .cls-97, .cls-98, .cls-99, .cls-100, .cls-101, .cls-102, .cls-103, .cls-104, .cls-105, .cls-106, .cls-107 {
        stroke-width: 0px;
      }

      .cls-2 {
        fill: #f47735;
      }

      .cls-3 {
        fill: #ef424f;
      }

      .cls-4 {
        fill: #f04f4b;
      }

      .cls-5 {
        fill: #f68527;
      }

      .cls-6 {
        fill: #ef3a51;
      }

      .cls-7 {
        fill: #f68a22;
      }

      .cls-8 {
        fill: #f15549;
      }

      .cls-9 {
        fill: #f15748;
      }

      .cls-10 {
        fill: #ef464e;
      }

      .cls-11 {
        fill: #f0534a;
      }

      .cls-12 {
        fill: #f26542;
      }

      .cls-13 {
        fill: #ef3b50;
      }

      .cls-14 {
        fill: #f26641;
      }

      .cls-15 {
        fill: #f3713a;
      }

      .cls-16 {
        fill: #ee2753;
      }

      .cls-17 {
        fill: #ee3152;
      }

      .cls-18 {
        fill: #f68824;
      }

      .cls-19 {
        fill: #f47537;
      }

      .cls-20 {
        fill: #f57f2e;
      }

      .cls-21 {
        fill: #f04c4c;
      }

      .cls-22 {
        fill: #f26a3e;
      }

      .cls-23 {
        fill: #ef434f;
      }

      .cls-24 {
        fill: #f15948;
      }

      .cls-25 {
        fill: #f04d4c;
      }

      .cls-26 {
        fill: #f15c46;
      }

      .cls-27 {
        fill: #f58329;
      }

      .cls-28 {
        fill: #f15649;
      }

      .cls-29 {
        fill: #ee2253;
      }

      .cls-30 {
        fill: #f26840;
      }

      .cls-31 {
        fill: #ee1d54;
      }

      .cls-32 {
        fill: #f47a33;
      }

      .cls-33 {
        fill: #f15a47;
      }

      .cls-34 {
        fill: #f04a4d;
      }

      .cls-35 {
        fill: #f68725;
      }

      .cls-36 {
        fill: #f68825;
      }

      .cls-37 {
        fill: #f58429;
      }

      .cls-38 {
        fill: #f5822b;
      }

      .cls-39 {
        fill: #f0494d;
      }

      .cls-40 {
        fill: none;
      }

      .cls-41 {
        fill: #f15d46;
      }

      .cls-42 {
        fill: #ef3f50;
      }

      .cls-43 {
        fill: #f16144;
      }

      .cls-44 {
        fill: #f5832a;
      }

      .cls-45 {
        fill: #f26442;
      }

      .cls-46 {
        fill: #ee2953;
      }

      .cls-47 {
        fill: #ee2b53;
      }

      .cls-48 {
        fill: #f36e3c;
      }

      .cls-49 {
        fill: #ef3751;
      }

      .cls-50 {
        fill: #f26b3e;
      }

      .cls-108 {
        clip-path: url(#clippath-1);
      }

      .cls-51 {
        fill: #ee2054;
      }

      .cls-52 {
        fill: #ef3951;
      }

      .cls-53 {
        fill: #f26a3f;
      }

      .cls-54 {
        fill: #ee2d52;
      }

      .cls-55 {
        fill: #f37338;
      }

      .cls-56 {
        fill: #f16044;
      }

      .cls-57 {
        fill: #f47636;
      }

      .cls-58 {
        fill: #f26741;
      }

      .cls-59 {
        fill: #f47934;
      }

      .cls-60 {
        fill: #f47b32;
      }

      .cls-61 {
        fill: #ee2e52;
      }

      .cls-62 {
        fill: #ef414f;
      }

      .cls-63 {
        fill: #f5802d;
      }

      .cls-64 {
        fill: #f15b47;
      }

      .cls-65 {
        fill: #f5812c;
      }

      .cls-66 {
        fill: #f0504b;
      }

      .cls-67 {
        fill: #f04b4d;
      }

      .cls-68 {
        fill: #ee3052;
      }

      .cls-69 {
        fill: #f26243;
      }

      .cls-70 {
        fill: #f04e4c;
      }

      .cls-71 {
        fill: #ee2453;
      }

      .cls-109 {
        clip-path: url(#clippath);
      }

      .cls-72 {
        fill: #ed1b54;
      }

      .cls-73 {
        fill: #f36c3d;
      }

      .cls-74 {
        fill: #f68c20;
      }

      .cls-75 {
        fill: #f3723a;
      }

      .cls-76 {
        fill: #f36d3d;
      }

      .cls-77 {
        fill: #ef3d50;
      }

      .cls-78 {
        fill: #f15f45;
      }

      .cls-79 {
        fill: #ef484d;
      }

      .cls-80 {
        fill: #f68b21;
      }

      .cls-81 {
        fill: #f47d30;
      }

      .cls-82 {
        fill: #f26343;
      }

      .cls-83 {
        fill: #f47736;
      }

      .cls-84 {
        fill: #ef404f;
      }

      .cls-85 {
        fill: #f15848;
      }

      .cls-86 {
        fill: #ee3451;
      }

      .cls-87 {
        fill: #f68528;
      }

      .cls-88 {
        fill: #f0524a;
      }

      .cls-89 {
        fill: #f68626;
      }

      .cls-90 {
        fill: #f0514b;
      }

      .cls-91 {
        fill: #ef454e;
      }

      .cls-92 {
        fill: #f37239;
      }

      .cls-93 {
        fill: #ef3e50;
      }

      .cls-94 {
        fill: #f57e2f;
      }

      .cls-95 {
        fill: #f36f3b;
      }

      .cls-96 {
        fill: #f15e46;
      }

      .cls-97 {
        fill: #f0544a;
      }

      .cls-98 {
        fill: #f26541;
      }

      .cls-99 {
        fill: #f3703b;
      }

      .cls-100 {
        fill: #f47834;
      }

      .cls-101 {
        fill: #ee3352;
      }

      .cls-102 {
        fill: #f37438;
      }

      .cls-103 {
        fill: #ee2653;
      }

      .cls-104 {
        fill: #ee3651;
      }

      .cls-105 {
        fill: #f26940;
      }

      .cls-106 {
        fill: #f68923;
      }

      .cls-107 {
        fill: #ef474e;
      }
    </style>
    <clipPath id="clippath">
      <path class="cls-40" d="M1254.37,618.78c16.59.3,27.53,17.38,20.85,32.57l-218.36,496.94-39.6,90.11-5.7-.84-236.27-32.99c-15.29-2.14-24.28-18.32-18.02-32.43l85.99-193.66,78.53-155.55-9.4-.17-23.99-.5-323.34-6.02c-19.05-.35-29.59-22.23-18-37.36L1130.55,17.66c16.38-21.38,49.92-2.41,40.05,22.65l-213.57,541.81c-5.94,15.06,4.96,31.42,21.14,31.74h0s276.2,4.92,276.2,4.92Z"/>
    </clipPath>
    <clipPath id="clippath-1">
      <path class="cls-40" d="M993.74,614.14c-9.42-.17-18.01,5.37-21.74,14.02l-23.36,54.16-60.24,139.94-15.1,35.07-107.56,249.18-74.3,172.31c-8.07,18.71-34.61,18.71-42.67-.01l-319.47-742.19c-3.67-8.52-12.06-14.04-21.34-14.04H12.83l636.86,1455.11c8.11,18.54,34.4,18.56,42.54.03l325.02-739.32,39.6-90.11,218.36-496.94c6.67-15.19-4.27-32.27-20.85-32.57l-260.63-4.64Z"/>
    </clipPath>
  </defs>
  <g>
    <g class="cls-109">
      <rect class="cls-72" x="535.46" y="-3.71" width="6.76" height="1242.12"/>
      <rect class="cls-72" x="542.22" y="-3.71" width="6.45" height="1242.12"/>
      <rect class="cls-31" x="548.67" y="-3.71" width="6.45" height="1242.12"/>
      <rect class="cls-51" x="555.11" y="-3.71" width="6.45" height="1242.12"/>
      <rect class="cls-29" x="561.56" y="-3.71" width="6.45" height="1242.12"/>
      <rect class="cls-71" x="568.01" y="-3.71" width="6.45" height="1242.12"/>
      <rect class="cls-103" x="574.45" y="-3.71" width="6.45" height="1242.12"/>
      <rect class="cls-16" x="580.9" y="-3.71" width="6.45" height="1242.12"/>
      <rect class="cls-46" x="587.35" y="-3.71" width="6.45" height="1242.12"/>
      <rect class="cls-47" x="593.8" y="-3.71" width="6.45" height="1242.12"/>
      <rect class="cls-54" x="600.24" y="-3.71" width="6.45" height="1242.12"/>
      <rect class="cls-61" x="606.69" y="-3.71" width="6.45" height="1242.12"/>
      <rect class="cls-68" x="613.14" y="-3.71" width="6.45" height="1242.12"/>
      <rect class="cls-17" x="619.59" y="-3.71" width="6.45" height="1242.12"/>
      <rect class="cls-101" x="626.03" y="-3.71" width="6.45" height="1242.12"/>
      <rect class="cls-86" x="632.48" y="-3.71" width="6.45" height="1242.12"/>
      <rect class="cls-104" x="638.93" y="-3.71" width="6.45" height="1242.12"/>
      <rect class="cls-49" x="645.37" y="-3.71" width="6.45" height="1242.12"/>
      <rect class="cls-52" x="651.82" y="-3.71" width="6.45" height="1242.12"/>
      <rect class="cls-6" x="658.27" y="-3.71" width="6.45" height="1242.12"/>
      <rect class="cls-13" x="664.72" y="-3.71" width="6.45" height="1242.12"/>
      <rect class="cls-77" x="671.16" y="-3.71" width="6.45" height="1242.12"/>
      <rect class="cls-93" x="677.61" y="-3.71" width="6.45" height="1242.12"/>
      <rect class="cls-42" x="684.06" y="-3.71" width="6.45" height="1242.12"/>
      <rect class="cls-84" x="690.51" y="-3.71" width="6.45" height="1242.12"/>
      <rect class="cls-62" x="696.95" y="-3.71" width="6.45" height="1242.12"/>
      <rect class="cls-3" x="703.4" y="-3.71" width="6.45" height="1242.12"/>
      <rect class="cls-23" x="709.85" y="-3.71" width="6.45" height="1242.12"/>
      <rect class="cls-91" x="716.29" y="-3.71" width="6.45" height="1242.12"/>
      <rect class="cls-10" x="722.74" y="-3.71" width="6.45" height="1242.12"/>
      <rect class="cls-107" x="729.19" y="-3.71" width="6.45" height="1242.12"/>
      <rect class="cls-79" x="735.64" y="-3.71" width="6.45" height="1242.12"/>
      <rect class="cls-39" x="742.08" y="-3.71" width="6.45" height="1242.12"/>
      <rect class="cls-34" x="748.53" y="-3.71" width="6.45" height="1242.12"/>
      <rect class="cls-67" x="754.98" y="-3.71" width="6.45" height="1242.12"/>
      <rect class="cls-21" x="761.43" y="-3.71" width="6.45" height="1242.12"/>
      <rect class="cls-25" x="767.87" y="-3.71" width="6.45" height="1242.12"/>
      <rect class="cls-70" x="774.32" y="-3.71" width="6.45" height="1242.12"/>
      <rect class="cls-4" x="780.77" y="-3.71" width="6.45" height="1242.12"/>
      <rect class="cls-66" x="787.21" y="-3.71" width="6.45" height="1242.12"/>
      <rect class="cls-90" x="793.66" y="-3.71" width="6.45" height="1242.12"/>
      <rect class="cls-88" x="800.11" y="-3.71" width="6.45" height="1242.12"/>
      <rect class="cls-11" x="806.56" y="-3.71" width="6.45" height="1242.12"/>
      <rect class="cls-97" x="813" y="-3.71" width="6.45" height="1242.12"/>
      <rect class="cls-8" x="819.45" y="-3.71" width="6.45" height="1242.12"/>
      <rect class="cls-28" x="825.9" y="-3.71" width="6.45" height="1242.12"/>
      <rect class="cls-9" x="832.35" y="-3.71" width="6.45" height="1242.12"/>
      <rect class="cls-85" x="838.79" y="-3.71" width="6.45" height="1242.12"/>
      <rect class="cls-24" x="845.24" y="-3.71" width="6.45" height="1242.12"/>
      <rect class="cls-33" x="851.69" y="-3.71" width="6.45" height="1242.12"/>
      <rect class="cls-64" x="858.13" y="-3.71" width="6.45" height="1242.12"/>
      <rect class="cls-26" x="864.58" y="-3.71" width="6.45" height="1242.12"/>
      <rect class="cls-41" x="871.03" y="-3.71" width="6.45" height="1242.12"/>
      <rect class="cls-96" x="877.48" y="-3.71" width="6.45" height="1242.12"/>
      <rect class="cls-78" x="883.92" y="-3.71" width="6.45" height="1242.12"/>
      <rect class="cls-78" x="890.37" y="-3.71" width="6.45" height="1242.12"/>
      <rect class="cls-56" x="896.82" y="-3.71" width="6.45" height="1242.12"/>
      <rect class="cls-43" x="903.27" y="-3.71" width="6.45" height="1242.12"/>
      <rect class="cls-69" x="909.71" y="-3.71" width="6.45" height="1242.12"/>
      <rect class="cls-82" x="916.16" y="-3.71" width="6.45" height="1242.12"/>
      <rect class="cls-45" x="922.61" y="-3.71" width="6.45" height="1242.12"/>
      <rect class="cls-12" x="929.05" y="-3.71" width="6.45" height="1242.12"/>
      <rect class="cls-98" x="935.5" y="-3.71" width="6.45" height="1242.12"/>
      <rect class="cls-14" x="941.95" y="-3.71" width="6.45" height="1242.12"/>
      <rect class="cls-58" x="948.4" y="-3.71" width="6.45" height="1242.12"/>
      <rect class="cls-30" x="954.84" y="-3.71" width="6.45" height="1242.12"/>
      <rect class="cls-105" x="961.29" y="-3.71" width="6.45" height="1242.12"/>
      <rect class="cls-53" x="967.74" y="-3.71" width="6.45" height="1242.12"/>
      <rect class="cls-22" x="974.19" y="-3.71" width="6.45" height="1242.12"/>
      <rect class="cls-50" x="980.63" y="-3.71" width="6.45" height="1242.12"/>
      <rect class="cls-73" x="987.08" y="-3.71" width="6.45" height="1242.12"/>
      <rect class="cls-76" x="993.53" y="-3.71" width="6.45" height="1242.12"/>
      <rect class="cls-48" x="999.97" y="-3.71" width="6.45" height="1242.12"/>
      <rect class="cls-48" x="1006.42" y="-3.71" width="6.45" height="1242.12"/>
      <rect class="cls-95" x="1012.87" y="-3.71" width="6.45" height="1242.12"/>
      <rect class="cls-99" x="1019.32" y="-3.71" width="6.45" height="1242.12"/>
      <rect class="cls-15" x="1025.76" y="-3.71" width="6.45" height="1242.12"/>
      <rect class="cls-75" x="1032.21" y="-3.71" width="6.45" height="1242.12"/>
      <rect class="cls-92" x="1038.66" y="-3.71" width="6.45" height="1242.12"/>
      <rect class="cls-55" x="1045.11" y="-3.71" width="6.45" height="1242.12"/>
      <rect class="cls-102" x="1051.55" y="-3.71" width="6.45" height="1242.12"/>
      <rect class="cls-19" x="1058" y="-3.71" width="6.45" height="1242.12"/>
      <rect class="cls-19" x="1064.45" y="-3.71" width="6.45" height="1242.12"/>
      <rect class="cls-57" x="1070.89" y="-3.71" width="6.45" height="1242.12"/>
      <rect class="cls-83" x="1077.34" y="-3.71" width="6.45" height="1242.12"/>
      <rect class="cls-2" x="1083.79" y="-3.71" width="6.45" height="1242.12"/>
      <rect class="cls-100" x="1090.24" y="-3.71" width="6.45" height="1242.12"/>
      <rect class="cls-59" x="1096.68" y="-3.71" width="6.45" height="1242.12"/>
      <rect class="cls-32" x="1103.13" y="-3.71" width="6.45" height="1242.12"/>
      <rect class="cls-32" x="1109.58" y="-3.71" width="6.45" height="1242.12"/>
      <rect class="cls-60" x="1116.03" y="-3.71" width="6.45" height="1242.12"/>
      <rect class="cls-1" x="1122.47" y="-3.71" width="6.45" height="1242.12"/>
      <rect class="cls-1" x="1128.92" y="-3.71" width="6.45" height="1242.12"/>
      <rect class="cls-81" x="1135.37" y="-3.71" width="6.45" height="1242.12"/>
      <rect class="cls-94" x="1141.81" y="-3.71" width="6.45" height="1242.12"/>
      <rect class="cls-94" x="1148.26" y="-3.71" width="6.45" height="1242.12"/>
      <rect class="cls-20" x="1154.71" y="-3.71" width="6.45" height="1242.12"/>
      <rect class="cls-63" x="1161.16" y="-3.71" width="6.45" height="1242.12"/>
      <rect class="cls-65" x="1167.6" y="-3.71" width="6.45" height="1242.12"/>
      <rect class="cls-65" x="1174.05" y="-3.71" width="6.45" height="1242.12"/>
      <rect class="cls-38" x="1180.5" y="-3.71" width="6.45" height="1242.12"/>
      <rect class="cls-44" x="1186.95" y="-3.71" width="6.45" height="1242.12"/>
      <rect class="cls-27" x="1193.39" y="-3.71" width="6.45" height="1242.12"/>
      <rect class="cls-37" x="1199.84" y="-3.71" width="6.45" height="1242.12"/>
      <rect class="cls-87" x="1206.29" y="-3.71" width="6.45" height="1242.12"/>
      <rect class="cls-5" x="1212.73" y="-3.71" width="6.45" height="1242.12"/>
      <rect class="cls-89" x="1219.18" y="-3.71" width="6.45" height="1242.12"/>
      <rect class="cls-35" x="1225.63" y="-3.71" width="6.45" height="1242.12"/>
      <rect class="cls-36" x="1232.08" y="-3.71" width="6.45" height="1242.12"/>
      <rect class="cls-18" x="1238.52" y="-3.71" width="6.45" height="1242.12"/>
      <rect class="cls-106" x="1244.97" y="-3.71" width="6.45" height="1242.12"/>
      <rect class="cls-7" x="1251.42" y="-3.71" width="6.45" height="1242.12"/>
      <rect class="cls-7" x="1257.87" y="-3.71" width="6.45" height="1242.12"/>
      <rect class="cls-80" x="1264.31" y="-3.71" width="6.45" height="1242.12"/>
      <rect class="cls-74" x="1270.76" y="-3.71" width="6.45" height="1242.12"/>
      <rect class="cls-74" x="1277.21" y="-3.71" width="4.69" height="1242.12"/>
    </g>
    <path class="cls-74" d="M1022.37,1247.64l-12.04-1.78-236.2-32.98c-9.92-1.38-18.4-7.2-23.27-15.96-4.86-8.76-5.32-19.03-1.25-28.19l85.99-193.65,72.68-143.99-20.06-.43-323.31-6.02c-12-.22-22.7-7.08-27.91-17.89-5.2-10.81-3.91-23.43,3.39-32.95L1123.89,12.56c9.86-12.83,26.58-16.26,40.66-8.28,14.09,7.97,19.78,24.06,13.85,39.11l-213.57,541.81c-1.81,4.58-1.28,9.56,1.45,13.66,2.74,4.1,7.13,6.51,12.06,6.61l276.18,4.92c10.61.19,20.35,5.64,26.07,14.57,5.72,8.93,6.58,20.06,2.31,29.77l-260.53,592.92ZM1148.58,16.79c-3.88,0-8.01,1.6-11.36,5.97l-583.5,761.23c-3.48,4.53-4.07,10.32-1.6,15.46,2.48,5.15,7.38,8.29,13.1,8.4l370.09,6.93-84.55,167.48-85.81,193.29c-1.91,4.29-1.7,9.12.59,13.23,2.28,4.1,6.26,6.83,10.92,7.49l235.71,32.9,255.38-581.2c2.03-4.63,1.63-9.72-1.09-13.97-2.72-4.25-7.18-6.74-12.23-6.83l-276.2-4.92c-10.36-.21-19.97-5.47-25.7-14.08s-6.89-19.5-3.11-29.12L1162.78,37.23c3.5-8.86-1.31-15.42-6.49-18.35-2.19-1.23-4.89-2.08-7.72-2.08Z"/>
  </g>
  <g>
    <g class="cls-108">
      <rect class="cls-72" x="12.83" y="522.58" width="11.09" height="1473.67"/>
      <rect class="cls-31" x="23.92" y="522.58" width="11.09" height="1473.67"/>
      <rect class="cls-51" x="35.02" y="522.58" width="11.09" height="1473.67"/>
      <rect class="cls-29" x="46.11" y="522.58" width="11.09" height="1473.67"/>
      <rect class="cls-71" x="57.2" y="522.58" width="11.09" height="1473.67"/>
      <rect class="cls-103" x="68.29" y="522.58" width="11.09" height="1473.67"/>
      <rect class="cls-16" x="79.38" y="522.58" width="11.09" height="1473.67"/>
      <rect class="cls-46" x="90.47" y="522.58" width="11.09" height="1473.67"/>
      <rect class="cls-47" x="101.56" y="522.58" width="11.09" height="1473.67"/>
      <rect class="cls-54" x="112.65" y="522.58" width="11.09" height="1473.67"/>
      <rect class="cls-61" x="123.74" y="522.58" width="11.09" height="1473.67"/>
      <rect class="cls-68" x="134.83" y="522.58" width="11.09" height="1473.67"/>
      <rect class="cls-17" x="145.93" y="522.58" width="11.09" height="1473.67"/>
      <rect class="cls-101" x="157.02" y="522.58" width="11.09" height="1473.67"/>
      <rect class="cls-86" x="168.11" y="522.58" width="11.09" height="1473.67"/>
      <rect class="cls-104" x="179.2" y="522.58" width="11.09" height="1473.67"/>
      <rect class="cls-49" x="190.29" y="522.58" width="11.09" height="1473.67"/>
      <rect class="cls-52" x="201.38" y="522.58" width="11.09" height="1473.67"/>
      <rect class="cls-6" x="212.47" y="522.58" width="11.09" height="1473.67"/>
      <rect class="cls-13" x="223.56" y="522.58" width="11.09" height="1473.67"/>
      <rect class="cls-77" x="234.65" y="522.58" width="11.09" height="1473.67"/>
      <rect class="cls-93" x="245.74" y="522.58" width="11.09" height="1473.67"/>
      <rect class="cls-42" x="256.84" y="522.58" width="11.09" height="1473.67"/>
      <rect class="cls-84" x="267.93" y="522.58" width="11.09" height="1473.67"/>
      <rect class="cls-62" x="279.02" y="522.58" width="11.09" height="1473.67"/>
      <rect class="cls-3" x="290.11" y="522.58" width="11.09" height="1473.67"/>
      <rect class="cls-23" x="301.2" y="522.58" width="11.09" height="1473.67"/>
      <rect class="cls-91" x="312.29" y="522.58" width="11.09" height="1473.67"/>
      <rect class="cls-10" x="323.38" y="522.58" width="11.09" height="1473.67"/>
      <rect class="cls-107" x="334.47" y="522.58" width="11.09" height="1473.67"/>
      <rect class="cls-79" x="345.56" y="522.58" width="11.09" height="1473.67"/>
      <rect class="cls-39" x="356.65" y="522.58" width="11.09" height="1473.67"/>
      <rect class="cls-34" x="367.75" y="522.58" width="11.09" height="1473.67"/>
      <rect class="cls-67" x="378.84" y="522.58" width="11.09" height="1473.67"/>
      <rect class="cls-21" x="389.93" y="522.58" width="11.09" height="1473.67"/>
      <rect class="cls-25" x="401.02" y="522.58" width="11.09" height="1473.67"/>
      <rect class="cls-70" x="412.11" y="522.58" width="11.09" height="1473.67"/>
      <rect class="cls-4" x="423.2" y="522.58" width="11.09" height="1473.67"/>
      <rect class="cls-66" x="434.29" y="522.58" width="11.09" height="1473.67"/>
      <rect class="cls-90" x="445.38" y="522.58" width="11.09" height="1473.67"/>
      <rect class="cls-88" x="456.47" y="522.58" width="11.09" height="1473.67"/>
      <rect class="cls-11" x="467.56" y="522.58" width="11.09" height="1473.67"/>
      <rect class="cls-97" x="478.66" y="522.58" width="11.09" height="1473.67"/>
      <rect class="cls-8" x="489.75" y="522.58" width="11.09" height="1473.67"/>
      <rect class="cls-28" x="500.84" y="522.58" width="11.09" height="1473.67"/>
      <rect class="cls-9" x="511.93" y="522.58" width="11.09" height="1473.67"/>
      <rect class="cls-85" x="523.02" y="522.58" width="11.09" height="1473.67"/>
      <rect class="cls-24" x="534.11" y="522.58" width="11.09" height="1473.67"/>
      <rect class="cls-33" x="545.2" y="522.58" width="11.09" height="1473.67"/>
      <rect class="cls-64" x="556.29" y="522.58" width="11.09" height="1473.67"/>
      <rect class="cls-26" x="567.38" y="522.58" width="11.09" height="1473.67"/>
      <rect class="cls-41" x="578.47" y="522.58" width="11.09" height="1473.67"/>
      <rect class="cls-96" x="589.57" y="522.58" width="11.09" height="1473.67"/>
      <rect class="cls-78" x="600.66" y="522.58" width="11.09" height="1473.67"/>
      <rect class="cls-78" x="611.75" y="522.58" width="11.09" height="1473.67"/>
      <rect class="cls-56" x="622.84" y="522.58" width="11.09" height="1473.67"/>
      <rect class="cls-43" x="633.93" y="522.58" width="11.09" height="1473.67"/>
      <rect class="cls-69" x="645.02" y="522.58" width="11.09" height="1473.67"/>
      <rect class="cls-82" x="656.11" y="522.58" width="11.09" height="1473.67"/>
      <rect class="cls-45" x="667.2" y="522.58" width="11.09" height="1473.67"/>
      <rect class="cls-12" x="678.29" y="522.58" width="11.09" height="1473.67"/>
      <rect class="cls-98" x="689.38" y="522.58" width="11.09" height="1473.67"/>
      <rect class="cls-14" x="700.48" y="522.58" width="11.09" height="1473.67"/>
      <rect class="cls-58" x="711.57" y="522.58" width="11.09" height="1473.67"/>
      <rect class="cls-30" x="722.66" y="522.58" width="11.09" height="1473.67"/>
      <rect class="cls-105" x="733.75" y="522.58" width="11.09" height="1473.67"/>
      <rect class="cls-53" x="744.84" y="522.58" width="11.09" height="1473.67"/>
      <rect class="cls-22" x="755.93" y="522.58" width="11.09" height="1473.67"/>
      <rect class="cls-50" x="767.02" y="522.58" width="11.09" height="1473.67"/>
      <rect class="cls-73" x="778.11" y="522.58" width="11.09" height="1473.67"/>
      <rect class="cls-76" x="789.2" y="522.58" width="11.09" height="1473.67"/>
      <rect class="cls-48" x="800.29" y="522.58" width="11.09" height="1473.67"/>
      <rect class="cls-48" x="811.39" y="522.58" width="11.09" height="1473.67"/>
      <rect class="cls-95" x="822.48" y="522.58" width="11.09" height="1473.67"/>
      <rect class="cls-99" x="833.57" y="522.58" width="11.09" height="1473.67"/>
      <rect class="cls-15" x="844.66" y="522.58" width="11.09" height="1473.67"/>
      <rect class="cls-75" x="855.75" y="522.58" width="11.09" height="1473.67"/>
      <rect class="cls-92" x="866.84" y="522.58" width="11.09" height="1473.67"/>
      <rect class="cls-55" x="877.93" y="522.58" width="11.09" height="1473.67"/>
      <rect class="cls-102" x="889.02" y="522.58" width="11.09" height="1473.67"/>
      <rect class="cls-19" x="900.11" y="522.58" width="11.09" height="1473.67"/>
      <rect class="cls-19" x="911.2" y="522.58" width="11.09" height="1473.67"/>
      <rect class="cls-57" x="922.3" y="522.58" width="11.09" height="1473.67"/>
      <rect class="cls-83" x="933.39" y="522.58" width="11.09" height="1473.67"/>
      <rect class="cls-2" x="944.48" y="522.58" width="11.09" height="1473.67"/>
      <rect class="cls-100" x="955.57" y="522.58" width="11.09" height="1473.67"/>
      <rect class="cls-59" x="966.66" y="522.58" width="11.09" height="1473.67"/>
      <rect class="cls-32" x="977.75" y="522.58" width="11.09" height="1473.67"/>
      <rect class="cls-32" x="988.84" y="522.58" width="11.09" height="1473.67"/>
      <rect class="cls-60" x="999.93" y="522.58" width="11.09" height="1473.67"/>
      <rect class="cls-1" x="1011.02" y="522.58" width="11.09" height="1473.67"/>
      <rect class="cls-1" x="1022.11" y="522.58" width="11.09" height="1473.67"/>
      <rect class="cls-81" x="1033.21" y="522.58" width="11.09" height="1473.67"/>
      <rect class="cls-94" x="1044.3" y="522.58" width="11.09" height="1473.67"/>
      <rect class="cls-94" x="1055.39" y="522.58" width="11.09" height="1473.67"/>
      <rect class="cls-20" x="1066.48" y="522.58" width="11.09" height="1473.67"/>
      <rect class="cls-63" x="1077.57" y="522.58" width="11.09" height="1473.67"/>
      <rect class="cls-65" x="1088.66" y="522.58" width="11.09" height="1473.67"/>
      <rect class="cls-65" x="1099.75" y="522.58" width="11.09" height="1473.67"/>
      <rect class="cls-38" x="1110.84" y="522.58" width="11.09" height="1473.67"/>
      <rect class="cls-44" x="1121.93" y="522.58" width="11.09" height="1473.67"/>
      <rect class="cls-27" x="1133.02" y="522.58" width="11.09" height="1473.67"/>
      <rect class="cls-37" x="1144.12" y="522.58" width="11.09" height="1473.67"/>
      <rect class="cls-87" x="1155.21" y="522.58" width="11.09" height="1473.67"/>
      <rect class="cls-5" x="1166.3" y="522.58" width="11.09" height="1473.67"/>
      <rect class="cls-89" x="1177.39" y="522.58" width="11.09" height="1473.67"/>
      <rect class="cls-35" x="1188.48" y="522.58" width="11.09" height="1473.67"/>
      <rect class="cls-36" x="1199.57" y="522.58" width="11.09" height="1473.67"/>
      <rect class="cls-18" x="1210.66" y="522.58" width="11.09" height="1473.67"/>
      <rect class="cls-106" x="1221.75" y="522.58" width="11.09" height="1473.67"/>
      <rect class="cls-7" x="1232.84" y="522.58" width="11.09" height="1473.67"/>
      <rect class="cls-7" x="1243.93" y="522.58" width="11.09" height="1473.67"/>
      <rect class="cls-80" x="1255.03" y="522.58" width="11.09" height="1473.67"/>
      <rect class="cls-74" x="1266.12" y="522.58" width="11.09" height="1473.67"/>
      <rect class="cls-74" x="1277.21" y="522.58" width="4.69" height="1473.67"/>
    </g>
    <path class="cls-74" d="M670.98,2000h-.03c-12.74-.02-23.83-7.28-28.93-18.95L0,514.19h307.96c12.64,0,24.04,7.5,29.04,19.11l319.48,742.19c2.41,5.62,7.5,8.97,13.62,8.97h0c6.11,0,11.2-3.34,13.63-8.96l280.56-650.66c5.09-11.83,16.85-19.3,29.6-19.09l260.62,4.64c10.61.19,20.35,5.64,26.07,14.57,5.72,8.93,6.58,20.06,2.31,29.77l-582.98,1326.38c-5.12,11.66-16.21,18.89-28.94,18.9ZM25.66,530.97l631.73,1443.35c2.43,5.56,7.5,8.89,13.58,8.9h.02c6.06,0,11.14-3.32,13.58-8.87l582.98-1326.38c2.03-4.63,1.63-9.72-1.09-13.97-2.72-4.25-7.18-6.74-12.23-6.83l-260.63-4.64c-6.54-.16-11.5,3.4-13.89,8.96l-280.56,650.66c-5.09,11.79-15.72,19.37-29.04,19.1-12.83,0-23.96-7.33-29.03-19.11l-319.48-742.19c-2.34-5.45-7.69-8.97-13.63-8.97H25.66Z"/>
  </g>
</svg>